<svg width="15" height="15" viewBox="0 0 15 15" fill="none" xmlns="http://www.w3.org/2000/svg">
<path d="M5.51933 0.54766C5.23347 0.261802 4.94761 0.118872 4.60458 0.0902864C4.26155 0.0617006 3.94711 0.176044 3.68984 0.433317L3.46115 0.662C3.23246 0.919274 3.11812 1.17655 3.08953 1.43382C3.06095 1.69109 3.17529 1.94836 3.37539 2.14846L7.83478 6.57924C8.09206 6.83652 8.23498 7.15098 8.23498 7.52262C8.23498 7.8942 8.09206 8.20866 7.83478 8.46594L3.37539 12.9253C3.14671 13.1254 3.06095 13.3827 3.08953 13.64C3.11812 13.8972 3.23246 14.1259 3.46115 14.3832L3.68984 14.6119C3.94711 14.8691 4.26155 14.9835 4.60458 14.9549C4.91902 14.9263 5.23347 14.7834 5.51933 14.4975L11.5223 8.43732C11.7796 8.18004 11.9225 7.86564 11.9225 7.494C11.9225 7.12242 11.7796 6.80796 11.5223 6.55068L5.51933 0.54766Z" fill="#606F7E"/>
</svg>
