<svg width="25" height="27" viewBox="0 0 25 27" fill="none" xmlns="http://www.w3.org/2000/svg">
<path d="M25 11.016C25 10.296 24.6469 9.936 23.9407 9.936H18.4322V1.08C18.4322 0.36 18.0085 0 17.161 0H7.83898C6.99153 0 6.5678 0.36 6.5678 1.08V9.936H1.05932L0.211864 10.152C-0.0706215 10.728 -0.0706215 11.304 0.211864 11.88L11.6525 23.544C12.2175 24.12 12.7825 24.12 13.3475 23.544L24.7881 11.88L25 11.016ZM25 25.92C25 25.2 24.6469 24.84 23.9407 24.84H1.05932C0.353107 24.84 7.89256e-09 25.2 7.89256e-09 25.92C7.89256e-09 26.64 0.353107 27 1.05932 27H23.9407C24.6469 27 25 26.64 25 25.92Z" fill="#D0D0D0"/>
</svg>
