<svg width="28" height="28" viewBox="0 0 28 28" fill="none" xmlns="http://www.w3.org/2000/svg">
<path fill-rule="evenodd" clip-rule="evenodd" d="M16.9987 18.7487C15.7826 19.6153 14.2946 20.125 12.6875 20.125C8.57988 20.125 5.25 16.7951 5.25 12.6875C5.25 8.57988 8.57988 5.25 12.6875 5.25C16.7951 5.25 20.125 8.57988 20.125 12.6875C20.125 14.2946 19.6153 15.7826 18.7487 16.9987L23.6354 21.8854C24.1169 22.3669 24.1128 23.1372 23.6353 23.6147L23.6147 23.6353C23.1384 24.1116 22.3629 24.1129 21.8854 23.6354L16.9987 18.7487ZM12.6875 18.375C15.8286 18.375 18.375 15.8286 18.375 12.6875C18.375 9.54638 15.8286 7 12.6875 7C9.54638 7 7 9.54638 7 12.6875C7 15.8286 9.54638 18.375 12.6875 18.375Z" fill="#606F7E"/>
</svg>
