<svg width="19" height="19" viewBox="0 0 19 19" fill="none" xmlns="http://www.w3.org/2000/svg">
<path d="M9.50002 7.30768C8.29134 7.30768 7.30771 8.29131 7.30771 9.49999C7.30771 10.7087 8.29134 11.6923 9.50002 11.6923C10.7087 11.6923 11.6923 10.7087 11.6923 9.49999C11.6923 8.29131 10.7087 7.30768 9.50002 7.30768Z" fill="#606F7E"/>
<path d="M18.4066 7.93909L17.3514 7.73596C16.8567 7.64099 16.4672 7.31719 16.283 6.84807C16.0981 6.37895 16.1639 5.87617 16.4621 5.46983L17.1256 4.56661C17.339 4.27501 17.3082 3.87166 17.0525 3.61664L15.6209 2.18581C15.3732 1.93951 14.9845 1.90158 14.6936 2.09811L13.8057 2.70023C13.3869 2.98446 12.882 3.02985 12.4208 2.82809C11.959 2.62641 11.6498 2.2252 11.5731 1.72679L11.4029 0.619673C11.3474 0.26308 11.0404 0 10.6802 0H8.65664C8.30587 0 8.00477 0.248435 7.93832 0.592697L7.6767 1.95561C7.58387 2.44015 7.26889 2.82595 6.81364 3.01452C6.35763 3.20378 5.86221 3.15334 5.45441 2.87639L4.30567 2.09811C4.01699 1.90226 3.62682 1.93951 3.37907 2.18581L1.94748 3.61664C1.69168 3.87166 1.66102 4.2751 1.87443 4.56661L2.53795 5.46914C2.83613 5.87617 2.9019 6.37895 2.71701 6.84807C2.53289 7.31719 2.14333 7.64099 1.6486 7.73596L0.593379 7.93909C0.248433 8.00563 0 8.30664 0 8.65673V10.6803C0 11.0412 0.263077 11.3475 0.619671 11.4029L1.72602 11.5732C2.22511 11.6499 2.62709 11.9591 2.828 12.4209C3.02967 12.8828 2.98369 13.3878 2.70014 13.8058L2.09803 14.6951C1.90217 14.9852 1.93874 15.3739 2.18649 15.621L3.61732 17.0518C3.87235 17.3083 4.27647 17.3375 4.56584 17.1249L5.46982 16.4621C5.87617 16.1646 6.37886 16.0996 6.8473 16.283C7.31719 16.4671 7.6409 16.8567 7.73596 17.3521L7.9384 18.4066C8.00494 18.7516 8.30596 19 8.65673 19H10.6803C11.0405 19 11.3475 18.7369 11.4029 18.3803L11.5228 17.6014C11.5995 17.1001 11.9254 16.6843 12.3953 16.4899C12.8644 16.2948 13.3884 16.3591 13.7984 16.6587L14.4334 17.1249C14.7235 17.3375 15.1269 17.3083 15.3827 17.0518L16.8135 15.621C17.0613 15.374 17.0978 14.9852 16.902 14.6951L16.2999 13.8058C16.0163 13.3878 15.9702 12.8828 16.172 12.4209C16.373 11.9591 16.7749 11.6499 17.274 11.5732L18.3803 11.4029C18.7369 11.3475 19 11.0412 19 10.6803V8.65673C19 8.30664 18.7516 8.00555 18.4066 7.93909ZM9.5 13.1539C7.4853 13.1539 5.84611 11.5148 5.84611 9.5C5.84611 7.4853 7.48521 5.84612 9.5 5.84612C11.5147 5.84612 13.1539 7.48521 13.1539 9.5C13.1538 11.5147 11.5147 13.1539 9.5 13.1539Z" fill="#606F7E"/>
</svg>
