<svg width="27" height="27" viewBox="0 0 27 27" fill="none" xmlns="http://www.w3.org/2000/svg">
<path d="M22.0263 0C19.292 0 17.0526 2.23942 17.0526 4.97368C17.0526 5.38989 17.1937 5.76199 17.2913 6.14911L8.77195 10.4109C7.85779 9.28938 6.5237 8.52632 4.97368 8.52632C2.23942 8.52632 0 10.7657 0 13.5C0 16.2343 2.23942 18.4737 4.97368 18.4737C6.5237 18.4737 7.85779 17.7106 8.77195 16.5891L17.2913 20.8509C17.1937 21.238 17.0526 21.6101 17.0526 22.0263C17.0526 24.7606 19.292 27 22.0263 27C24.7606 27 27 24.7606 27 22.0263C27 19.2921 24.7606 17.0526 22.0263 17.0526C20.4763 17.0526 19.1422 17.8157 18.2281 18.9372L9.70868 14.6754C9.8063 14.2883 9.94737 13.9162 9.94737 13.5C9.94737 13.0838 9.8063 12.7117 9.70868 12.3246L18.2281 8.06281C19.1422 9.18431 20.4763 9.94737 22.0263 9.94737C24.7606 9.94737 27 7.70795 27 4.97368C27 2.23942 24.7606 0 22.0263 0ZM22.0263 2.13158C23.6086 2.13158 24.8684 3.39141 24.8684 4.97368C24.8684 6.55596 23.6086 7.81579 22.0263 7.81579C20.444 7.81579 19.1842 6.55596 19.1842 4.97368C19.1842 3.39141 20.444 2.13158 22.0263 2.13158ZM4.97368 10.6579C6.55596 10.6579 7.81579 11.9177 7.81579 13.5C7.81579 15.0823 6.55596 16.3421 4.97368 16.3421C3.39141 16.3421 2.13158 15.0823 2.13158 13.5C2.13158 11.9177 3.39141 10.6579 4.97368 10.6579ZM22.0263 19.1842C23.6086 19.1842 24.8684 20.444 24.8684 22.0263C24.8684 23.6086 23.6086 24.8684 22.0263 24.8684C20.444 24.8684 19.1842 23.6086 19.1842 22.0263C19.1842 20.444 20.444 19.1842 22.0263 19.1842Z" fill="#606F7E"/>
<defs>
<linearGradient id="paint0_linear_107_6" x1="13.5" y1="0" x2="13.5" y2="27" gradientUnits="userSpaceOnUse">
<stop stop-color="#00EFD1"/>
<stop offset="1" stop-color="#00ACEA"/>
</linearGradient>
</defs>
</svg>
