<svg width="30" height="30" viewBox="0 0 30 30" fill="none" xmlns="http://www.w3.org/2000/svg">
<path d="M25.4548 4.47124C22.5726 1.58905 19.0876 0.147949 15 0.147949C10.9096 0.147949 7.41914 1.58905 4.52873 4.47124C1.64654 7.36165 0.205444 10.8521 0.205444 14.9425C0.205444 18.8274 1.50681 22.1671 4.10955 24.9617C4.14012 24.9947 4.17026 25.0276 4.19997 25.0603H25.7835C25.8098 25.0329 25.8358 25.0055 25.8616 24.9781C28.4835 22.1781 29.7945 18.8329 29.7945 14.9425C29.7945 10.8521 28.3479 7.36165 25.4548 4.47124Z" fill="#0066FF"/>
<path d="M18.3041 4.32329C17.2959 3.65754 16.1891 3.33836 14.9836 3.36576C13.7781 3.33836 12.6713 3.65754 11.663 4.32329C10.274 5.27672 9.45482 6.61918 9.20551 8.35069C9.02743 9.6685 9.11921 10.9767 9.48085 12.2753C9.99318 14.1 10.8452 15.6192 12.037 16.8329C12.1877 17.126 12.248 17.5069 12.2178 17.9753C12.1055 19.1726 11.5617 19.9123 10.5863 20.1945C9.83565 20.4055 9.13702 20.6822 8.49044 21.0247C6.00003 22.3069 4.53976 23.6233 4.10962 24.974C4.24661 25.1219 4.38633 25.2671 4.5288 25.4096C7.41921 28.3027 10.9096 29.7493 15 29.7493C19.0877 29.7493 22.5726 28.3027 25.4548 25.4096C25.5946 25.2699 25.7302 25.1301 25.8617 24.9904C25.437 23.6343 23.9754 22.3123 21.4767 21.0247C20.8302 20.6822 20.1315 20.4055 19.3809 20.1945C18.4055 19.9123 17.8617 19.1726 17.7493 17.9753C17.7192 17.5069 17.7795 17.126 17.9302 16.8329C19.1219 15.6192 19.974 14.1 20.4863 12.2753C20.848 10.9767 20.9398 9.6685 20.7617 8.35069C20.5124 6.61918 19.6932 5.27672 18.3041 4.32329Z" fill="white"/>
</svg>
