<svg width="39" height="27" viewBox="0 0 39 27" fill="none" xmlns="http://www.w3.org/2000/svg">
<path d="M38.1461 15.143C38.0486 15.2822 37.7143 15.7551 37.5069 16.0168C36.5779 17.1852 34.4036 19.9202 31.3782 22.3344C27.4992 25.4302 23.5075 27 19.5137 27C15.5198 27 11.5281 25.4302 7.64909 22.3344C4.62377 19.9202 2.44943 17.1846 1.52098 16.0168C1.31298 15.7551 0.978754 15.2817 0.881251 15.143C0.209017 14.1864 0.209017 12.9107 0.881251 11.9541C0.978754 11.8154 1.31298 11.342 1.52098 11.0804C2.44943 9.91248 4.62377 7.17751 7.64909 4.76321C11.5281 1.66747 15.5198 0.0976562 19.5137 0.0976562C23.5075 0.0976562 27.4992 1.66747 31.3782 4.76321C34.4036 7.17751 36.5779 9.91302 37.5063 11.0809C37.7143 11.3425 38.0486 11.816 38.1461 11.9546C38.8183 12.9113 38.8183 14.1864 38.1461 15.143ZM32.3608 13.5488C27.951 8.30259 23.6332 5.64453 19.5137 5.64453C15.3947 5.64453 11.0763 8.30205 6.66647 13.5488C11.0763 18.7951 15.3941 21.4531 19.5137 21.4531C23.6332 21.4531 27.951 18.7956 32.3608 13.5488ZM19.6523 8.2793C16.7418 8.2793 14.3828 10.6383 14.3828 13.5488C14.3828 16.4593 16.7418 18.8184 19.6523 18.8184C22.5628 18.8184 24.9219 16.4593 24.9219 13.5488C24.9219 10.6383 22.5628 8.2793 19.6523 8.2793Z" fill="#D0D0D0"/>
</svg>
